<svg width="77" height="70" viewBox="0 0 77 70" fill="none" xmlns="http://www.w3.org/2000/svg">
  <rect x="3" y="8" width="14" height="14" rx="2.5" fill="currentColor"/>
  <rect x="22" y="8" width="14" height="14" rx="2.5" fill="currentColor"/>
  <rect x="41" y="8" width="14" height="14" rx="2.5" fill="currentColor"/>
  <rect x="60" y="8" width="14" height="14" rx="2.5" fill="currentColor"/>
  <rect x="3" y="27" width="14" height="14" rx="2.5" fill="currentColor"/>
  <rect x="60" y="27" width="14" height="14" rx="2.5" fill="currentColor"/>
  <rect x="3" y="46" width="14" height="14" rx="2.5" fill="currentColor"/>
  <rect x="60" y="46" width="14" height="14" rx="2.5" fill="currentColor"/>
  <rect x="23.5" y="28.5" width="11" height="11" rx="1.5" fill="currentColor"/>
  <rect x="42.5" y="28.5" width="11" height="11" rx="1.5" fill="currentColor"/>
  <rect x="23.5" y="47.5" width="11" height="11" rx="1.5" fill="currentColor"/>
  <rect x="42.5" y="47.5" width="11" height="11" rx="1.5" fill="currentColor"/>
</svg>